HIERARCHY
ROOT Hips
{
	OFFSET 0.000000 0.000000 0.000000
	CHANNELS 6 Xposition Yposition Zposition Zrotation Yrotation Xrotation 
	JOINT LHipJoint
	{
		OFFSET 0.000000 0.000000 0.000000
		CHANNELS 3 Zrotation Yrotation Xrotation
		JOINT LeftUpLeg
		{
			OFFSET 1.363060 -1.794630 0.839290
			CHANNELS 3 Zrotation Yrotation Xrotation
			JOINT LeftLeg
			{
				OFFSET 2.448110 -6.726130 0.000000
				CHANNELS 3 Zrotation Yrotation Xrotation
				JOINT LeftFoot
				{
					OFFSET 2.562200 -7.039590 0.000000
					CHANNELS 3 Zrotation Yrotation Xrotation
					JOINT LeftToeBase
					{
						OFFSET 0.157640 -0.433110 2.322550
						CHANNELS 3 Zrotation Yrotation Xrotation
						End Site
						{
							OFFSET 0.000000 0.000000 0.000000
						}
					}
				}
			}
		}
	}
	JOINT RHipJoint
	{
		OFFSET 0.000000 0.000000 0.000000
		CHANNELS 3 Zrotation Yrotation Xrotation
		JOINT RightUpLeg
		{
			OFFSET -1.305520 -1.794630 0.839290
			CHANNELS 3 Zrotation Yrotation Xrotation
			JOINT RightLeg
			{
				OFFSET -2.542530 -6.985550 0.000000
				CHANNELS 3 Zrotation Yrotation Xrotation
				JOINT RightFoot
				{
					OFFSET -2.568260 -7.056230 0.000000
					CHANNELS 3 Zrotation Yrotation Xrotation
					JOINT RightToeBase
					{
						OFFSET -0.164730 -0.452590 2.363150
						CHANNELS 3 Zrotation Yrotation Xrotation
						End Site
						{
							OFFSET 0.000000 0.000000 0.000000
						}
					}
				}
			}
		}
	}
	JOINT LowerBack
	{
		OFFSET 0.000000 0.000000 0.000000
		CHANNELS 3 Zrotation Yrotation Xrotation
		JOINT Spine
		{
			OFFSET 0.028270 2.035590 -0.193380
			CHANNELS 3 Zrotation Yrotation Xrotation
			JOINT Spine1
			{
				OFFSET 0.056720 2.048850 -0.042750
				CHANNELS 3 Zrotation Yrotation Xrotation
				JOINT Neck
				{
					OFFSET 0.000000 0.000000 0.000000
					CHANNELS 3 Zrotation Yrotation Xrotation
					JOINT Neck1
					{
						OFFSET -0.054170 1.746240 0.172020
						CHANNELS 3 Zrotation Yrotation Xrotation
						JOINT Head
						{
							OFFSET 0.104070 1.761360 -0.123970
							CHANNELS 3 Zrotation Yrotation Xrotation
							End Site
							{
								OFFSET 0.000000 0.000000 0.000000
							}
						}
					}
				}
				JOINT LeftShoulder
				{
					OFFSET 0.000000 0.000000 0.000000
					CHANNELS 3 Zrotation Yrotation Xrotation
					JOINT LeftArm
					{
						OFFSET 3.362410 1.200890 -0.311210
						CHANNELS 3 Zrotation Yrotation Xrotation
						JOINT LeftForeArm
						{
							OFFSET 4.983000 -0.000000 -0.000000
							CHANNELS 3 Zrotation Yrotation Xrotation
							JOINT LeftHand
							{
								OFFSET 3.483560 -0.000000 -0.000000
								CHANNELS 3 Zrotation Yrotation Xrotation
								JOINT LeftFingerBase
								{
									OFFSET 0.000000 0.000000 0.000000
									CHANNELS 3 Zrotation Yrotation Xrotation
									JOINT LeftHandIndex1
									{
										OFFSET 0.715260 -0.000000 -0.000000
										CHANNELS 3 Zrotation Yrotation Xrotation
										End Site
										{
											OFFSET 0.000000 0.000000 0.000000
										}
									}
								}
								JOINT LThumb
								{
									OFFSET 0.000000 0.000000 0.000000
									CHANNELS 3 Zrotation Yrotation Xrotation
									End Site
									{
										OFFSET 0.000000 0.000000 0.000000
									}
								}
							}
						}
					}
				}
				JOINT RightShoulder
				{
					OFFSET 0.000000 0.000000 0.000000
					CHANNELS 3 Zrotation Yrotation Xrotation
					JOINT RightArm
					{
						OFFSET -3.136600 1.374050 -0.404650
						CHANNELS 3 Zrotation Yrotation Xrotation
						JOINT RightForeArm
						{
							OFFSET -5.241900 -0.000000 -0.000000
							CHANNELS 3 Zrotation Yrotation Xrotation
							JOINT RightHand
							{
								OFFSET -3.444170 -0.000000 -0.000000
								CHANNELS 3 Zrotation Yrotation Xrotation
								JOINT RightFingerBase
								{
									OFFSET 0.000000 0.000000 0.000000
									CHANNELS 3 Zrotation Yrotation Xrotation
									JOINT RightHandIndex1
									{
										OFFSET -0.622530 -0.000000 -0.000000
										CHANNELS 3 Zrotation Yrotation Xrotation
										End Site
										{
											OFFSET 0.000000 0.000000 0.000000
										}
									}
								}
								JOINT RThumb
								{
									OFFSET 0.000000 0.000000 0.000000
									CHANNELS 3 Zrotation Yrotation Xrotation
									End Site
									{
										OFFSET 0.000000 0.000000 0.000000
									}
								}
							}
						}
					}
				}
			}
		}
	}
}
MOTION
Frames: 12
Frame Time: 0.008333
9.432498 18.203575 -34.487905 -171.017710 17.214145 -169.630106 -0.479313 1.944896 1.626575 -10.522713 -16.299548 -11.857293 -0.616487 10.704088 30.361879 -1.561278 7.521090 -3.022129 1.505900 -7.750600 -21.959000 -3.225590 -1.705189 0.117489 30.407796 6.638348 -17.147458 1.631642 -10.134457 27.699261 5.567724 -19.803530 -9.071460 -0.250400 3.219800 -8.891400 -2.913633 1.023248 12.294124 1.067349 1.047009 6.496969 -1.138213 0.939548 -13.741863 -5.368328 0.550665 -13.773901 12.280070 0.158827 6.485826 1.941600 0.272200 2.683700 -1.233194 -10.761951 1.778863 -79.813858 3.422071 22.182928 27.264463 -27.858670 -8.087274 1.247063 1.154744 10.708584 13.826061 -35.212329 -7.776200 -7.125000 0.000000 0.000000 -11.138300 -6.882900 12.620500 0.113555 10.590779 2.625383 85.399475 -11.243385 52.979329 -31.531270 35.622924 -12.188099 0.143494 1.081960 -13.913497 24.000365 -57.013446 -20.428400 7.125000 0.000000 0.000000 -25.597500 8.872000 -156.058400 
9.461816 18.191872 -34.520533 -171.460274 17.419365 -169.914326 -0.509286 1.969050 1.659888 -10.959489 -16.048907 -11.724167 -0.585046 10.758784 30.558573 -1.429828 7.224630 -3.032499 1.487400 -7.704900 -21.821400 -3.193971 -1.756323 0.151670 30.005752 6.931298 -16.502519 1.704397 -9.951599 27.319009 5.627146 -19.935105 -9.269497 -0.198000 2.865600 -7.904700 -3.166669 1.063718 12.251236 0.907028 1.062669 6.389006 -1.035368 0.962852 -13.779026 -5.538157 0.131097 -14.290847 12.243227 -0.324488 7.186243 1.969700 0.083000 3.035100 -1.238341 -10.711722 1.779260 -79.869503 3.762322 22.136665 27.190203 -27.768486 -8.045132 1.248807 1.159650 10.528148 13.792347 -35.226127 -7.755200 -7.125000 0.000000 0.000000 -11.160700 -6.892300 12.648400 0.130349 10.626699 2.635599 85.432412 -11.253608 53.072298 -31.221455 35.358614 -11.995835 0.142478 1.087603 -14.100323 24.145707 -56.946234 -20.543200 7.125000 0.000000 0.000000 -25.656500 8.942400 -156.029200 
9.496217 18.189035 -34.562736 -171.376904 17.438309 -169.719140 -0.476538 1.948473 1.642076 -10.824028 -15.790601 -11.917989 -0.530206 10.824706 30.738081 -1.366286 7.090437 -2.919810 1.565500 -7.895400 -22.396700 -3.195321 -1.772610 0.164587 30.148712 7.183496 -16.160596 1.799175 -9.797490 26.922048 5.624191 -19.957394 -9.496942 -0.146300 2.465200 -6.793100 -2.899191 1.071073 11.729068 0.944059 1.113993 6.304842 -1.182591 0.956307 -13.488634 -5.219250 0.492590 -13.825644 11.875945 0.122037 6.936076 1.785200 0.277300 2.855900 -1.244375 -10.731027 1.784890 -79.843410 3.916107 21.946953 27.103876 -27.676200 -8.002402 1.251072 1.169918 10.673801 14.069447 -35.391624 -7.962700 -7.125000 0.000000 0.000000 -11.033400 -7.120000 12.537200 0.137101 10.628639 2.618942 85.559391 -11.069212 53.017163 -30.869083 35.045203 -11.772843 0.138100 1.097749 -14.224348 24.499691 -56.702936 -20.812000 7.125000 0.000000 0.000000 -25.828300 9.203200 -155.977900 
9.533810 18.180760 -34.605885 -171.534172 17.562701 -169.763982 -0.469196 1.952800 1.665293 -10.977709 -15.523222 -11.951346 -0.465824 10.912289 31.022407 -1.220992 6.789339 -3.152265 1.501400 -7.739500 -21.925600 -3.182038 -1.811671 0.203097 30.048014 7.399171 -15.694263 1.873962 -9.636016 26.558758 5.636549 -19.983355 -9.643481 -0.106700 2.106600 -5.800500 -2.930388 1.072753 11.153919 0.900253 1.120456 6.497367 -1.160694 0.956185 -13.095549 -5.486532 0.071837 -14.523144 11.886700 -0.346865 7.458675 1.842100 0.081300 3.192300 -1.246117 -10.738927 1.781664 -79.870920 3.945419 21.470487 27.080355 -27.642798 -7.984368 1.250264 1.178705 10.742909 14.375458 -35.477503 -8.174900 -7.125000 0.000000 0.000000 -10.881400 -7.272300 12.383500 0.133180 10.676690 2.608526 85.603458 -10.734085 53.088159 -30.569708 34.777188 -11.587153 0.133764 1.105304 -14.309490 24.994274 -56.561297 -21.227800 7.125000 0.000000 0.000000 -26.014400 9.368600 -155.855600 
9.567856 18.157116 -34.618061 -171.789633 17.629686 -169.967473 -0.442087 1.952319 1.642139 -11.195733 -15.223654 -11.997527 -0.386993 11.024723 31.361028 -1.073012 6.461583 -3.152604 1.503500 -7.744600 -21.941000 -3.163466 -1.839463 0.197681 29.914418 7.836487 -15.053767 1.960771 -9.456864 26.150735 5.732888 -20.273916 -9.931990 -0.075500 1.772900 -4.878400 -3.217933 1.091630 12.060734 0.933853 1.074792 5.704090 -1.013507 0.960209 -13.915998 -5.435070 0.020660 -14.483131 11.745048 -0.392540 8.056155 1.797300 0.098800 3.366800 -1.280088 -10.609703 1.796073 -80.060109 4.813666 21.259252 27.060361 -27.619400 -7.965859 1.234396 1.183426 10.552193 14.531795 -35.341337 -8.253700 -7.125000 0.000000 0.000000 -10.776100 -7.166300 12.242200 0.172163 10.671563 2.658166 85.659308 -11.291600 53.312387 -30.345217 34.595650 -11.457521 0.124990 1.105071 -14.364570 25.488589 -56.605221 -21.686600 7.125000 0.000000 0.000000 -26.149000 9.349600 -155.685300 
9.597529 18.141275 -34.660383 -171.821082 17.726104 -170.038418 -0.406897 1.971294 1.662929 -11.255372 -14.901019 -12.008632 -0.298778 11.122907 31.692256 -1.018344 6.329319 -3.049871 1.646300 -8.086900 -22.978400 -3.157864 -1.891739 0.232509 29.974165 8.064706 -14.457448 2.038841 -9.283882 25.778801 5.755353 -20.360585 -10.182935 -0.064800 1.642500 -4.518500 -3.070829 1.137545 11.732122 1.032738 1.159155 5.717253 -1.101657 0.981984 -13.727441 -5.121790 0.411165 -14.086781 11.353389 0.106765 7.909892 1.611300 0.327200 3.230000 -1.295797 -10.609870 1.785274 -80.184821 4.987037 21.042319 26.959091 -27.499990 -7.904895 1.235040 1.188871 10.449508 14.607864 -35.227264 -8.279100 -7.125000 0.000000 0.000000 -10.723800 -7.072200 12.165400 0.170698 10.681126 2.651153 85.609998 -11.215753 53.369582 -30.014486 34.293570 -11.256188 0.125869 1.111353 -14.616238 25.536045 -56.548209 -21.713000 7.125000 0.000000 0.000000 -26.175200 9.401100 -155.684800 
9.630866 18.140921 -34.704359 -172.007550 17.858027 -170.197890 -0.391077 1.981102 1.695901 -11.440241 -14.493333 -12.082002 -0.202674 11.237004 32.068623 -0.898836 6.050578 -2.953996 1.709400 -8.232500 -23.422700 -3.153833 -1.945799 0.284343 29.880616 8.245765 -13.877288 2.106964 -9.112946 25.431315 5.797962 -20.484190 -10.439413 -0.068800 1.691800 -4.654600 -2.930419 1.190384 11.124700 0.896817 1.263086 6.079364 -1.218448 1.017328 -13.265772 -5.656390 0.004557 -14.740509 11.677790 -0.351731 8.322019 1.815100 0.132300 3.531800 -1.282385 -10.656398 1.779660 -80.224491 4.931718 20.637463 26.964824 -27.500114 -7.901755 1.249882 1.183894 10.567027 14.466381 -35.198954 -8.177900 -7.125000 0.000000 0.000000 -10.802000 -7.017300 12.248100 0.169987 10.707187 2.621727 85.737728 -10.805280 53.209690 -29.590818 33.897921 -10.994636 0.132064 1.124236 -14.837933 25.299723 -56.321172 -21.444500 7.125000 0.000000 0.000000 -26.166400 9.608100 -155.818500 
9.662548 18.139266 -34.739824 -171.987946 17.962215 -170.246578 -0.338671 1.984141 1.700025 -11.412922 -14.039603 -12.238251 -0.106608 11.337059 32.389953 -0.744255 5.691989 -2.657253 1.733800 -8.288000 -23.592400 -3.158678 -1.981663 0.298813 30.026223 8.476126 -13.354489 2.174830 -8.965087 25.093632 5.907667 -20.831814 -10.608657 -0.089500 1.930100 -5.312400 -2.819670 1.195966 11.129405 0.984009 1.280894 5.895026 -1.276626 1.011400 -13.332232 -5.101817 0.470468 -14.268818 11.057618 0.247080 8.295877 1.516200 0.416100 3.408900 -1.296032 -10.608142 1.769602 -80.445376 5.416017 19.988201 27.077415 -27.630902 -7.959758 1.261020 1.172792 10.782088 14.275300 -35.221907 -8.057300 -7.125000 0.000000 0.000000 -10.909300 -6.998500 12.371000 0.176029 10.724533 2.625003 85.834261 -10.828555 53.232003 -29.293732 33.629465 -10.819398 0.122591 1.129402 -14.915376 25.910775 -56.266186 -21.987000 7.125000 0.000000 0.000000 -26.363500 9.691400 -155.635800 
9.693284 18.130517 -34.766423 -172.029361 18.055440 -170.343287 -0.284478 1.985473 1.711071 -11.407407 -13.603280 -12.396723 0.011659 11.450427 32.773325 -0.411521 4.929683 -2.273393 1.556000 -7.872600 -22.327900 -3.167529 -2.015902 0.314345 30.135879 8.796072 -12.858390 2.233863 -8.835020 24.780281 6.084140 -21.362299 -10.683500 -0.098000 2.018300 -5.556300 -2.751541 1.213057 11.119113 1.033326 1.310341 5.864410 -1.315529 1.020581 -13.347939 -5.583278 0.086650 -14.918486 11.347407 -0.180547 8.808543 1.702700 0.242300 3.725500 -1.311240 -10.600605 1.773490 -80.553849 5.571065 19.459900 26.998911 -27.550281 -7.915280 1.265321 1.179546 10.808705 14.394743 -35.332466 -8.153100 -7.125000 0.000000 0.000000 -10.861500 -7.138200 12.338000 0.181539 10.742817 2.627820 85.855459 -10.646181 53.312591 -28.967867 33.333129 -10.631620 0.108685 1.133722 -15.084506 26.807405 -56.324935 -22.815800 7.125000 0.000000 0.000000 -26.608000 9.666200 -155.330000 
9.731823 18.130990 -34.823876 -172.367760 18.259174 -170.659090 -0.272438 2.017515 1.768412 -11.762332 -13.086502 -12.334869 0.148600 11.587836 33.284040 0.019646 3.938817 -2.212451 1.246300 -7.078200 -19.947400 -3.168599 -2.092700 0.363054 29.913337 8.845076 -12.158444 2.270962 -8.675411 24.521518 6.100802 -21.375577 -10.806691 -0.073800 1.752000 -4.820700 -2.782122 1.310463 10.755000 0.839984 1.441088 6.013606 -1.371979 1.082642 -13.110047 -5.386464 0.420158 -14.494643 11.109402 0.239006 8.680481 1.590100 0.436500 3.598000 -1.299478 -10.613369 1.765095 -80.578326 5.704141 19.231246 26.826585 -27.357636 -7.819190 1.270770 1.189205 10.784821 14.527299 -35.312918 -8.232100 -7.125000 0.000000 0.000000 -10.792600 -7.154500 12.259700 0.193442 10.743687 2.603769 86.000296 -10.576233 53.248383 -28.547710 32.939797 -10.388467 0.101844 1.141351 -15.273847 27.335867 -56.324728 -23.296200 7.125000 0.000000 0.000000 -26.757400 9.677400 -155.158300 
9.766460 18.136192 -34.853903 -172.334500 18.379324 -170.607997 -0.187999 1.981567 1.738405 -11.677042 -12.380434 -12.780862 0.300680 11.748463 33.775870 0.295114 3.277114 -1.683823 1.250100 -7.088700 -19.978300 -3.189287 -2.096416 0.362858 30.079652 9.184986 -11.748686 2.321652 -8.578503 24.330134 6.053130 -21.299532 -11.162731 -0.039800 1.287100 -3.539100 -2.641335 1.399968 10.692814 0.912289 1.578398 5.769360 -1.469983 1.124839 -13.151460 -4.936131 0.352964 -14.467252 10.349845 0.213343 9.086617 1.260400 0.435700 3.737500 -1.329171 -10.542003 1.757844 -80.703624 6.022311 18.972385 26.712555 -27.231065 -7.755754 1.276988 1.192694 10.943871 14.625450 -35.255611 -8.283400 -7.125000 0.000000 0.000000 -10.735600 -7.124400 12.187800 0.200959 10.792967 2.616458 86.162618 -10.686906 53.064489 -28.137571 32.550569 -10.150848 0.099771 1.148224 -15.327883 27.618196 -56.280853 -23.542900 7.125000 0.000000 0.000000 -26.849700 9.725600 -155.077300 
9.799443 18.139502 -34.885585 -172.293550 18.500329 -170.666893 -0.096030 1.959355 1.732823 -11.631424 -11.546770 -13.196331 0.476961 11.927450 34.363941 0.394326 2.980245 -1.025961 1.628300 -8.044600 -22.849600 -3.218659 -2.122144 0.382295 30.263680 9.342624 -11.340205 2.351272 -8.500513 24.209269 6.013894 -21.239510 -11.446840 -0.024400 1.008300 -2.771600 -2.479784 1.482160 10.555507 0.954955 1.705740 5.817991 -1.587726 1.178525 -13.067619 -5.591032 0.008249 -14.770428 10.848608 -0.212288 9.189764 1.528700 0.234400 3.851600 -1.337692 -10.580252 1.763037 -80.821219 6.149181 18.571578 26.620243 -27.130361 -7.704036 1.277191 1.201172 10.994255 14.846377 -35.278281 -8.429900 -7.125000 0.000000 0.000000 -10.621600 -7.198800 12.066000 0.208620 10.771099 2.601850 86.247043 -10.558697 53.001457 -27.763393 32.184845 -9.932197 0.104141 1.158791 -15.518545 27.441717 -56.060700 -23.326700 7.125000 0.000000 0.000000 -26.863600 9.935000 -155.190100 
